<?xml version="1.0" standalone="no"?><!DOCTYPE svg PUBLIC "-//W3C//DTD SVG 1.1//EN" "http://www.w3.org/Graphics/SVG/1.1/DTD/svg11.dtd"><svg t="1767022771791" class="icon" viewBox="0 0 1187 1024" version="1.1" xmlns="http://www.w3.org/2000/svg" p-id="21293" data-darkreader-inline-fill="" xmlns:xlink="http://www.w3.org/1999/xlink" width="231.8359375" height="200"><path d="M1179.51357 346.841068L999.032931 66.638375a54.002887 54.002887 0 0 0-73.580725-16.280734L24.738524 611.408113a52.098348 52.098348 0 0 0-16.567439 72.311033l180.480639 280.233412a53.972169 53.972169 0 0 0 73.509049 16.219297l900.7444-561.009514a51.903799 51.903799 0 0 0 16.608397-72.321273z m-35.950728 42.207035l-900.7444 561.122148a17.09989 17.09989 0 0 1-23.417634-5.181164L38.930409 664.714717a16.567439 16.567439 0 0 1 5.293798-23.089971L944.999326 80.615231a17.079411 17.079411 0 0 1 23.376676 5.222122l180.552315 280.223173a16.823425 16.823425 0 0 1-5.375714 23.018295zM367.10495 211.239962l14.959844 35.326121 19.383289-33.145117 38.71538-3.071837-26.079892-28.414488 8.887847-37.158983-35.387557 15.645888-33.267991-19.803107 4.208417 38.060055-29.489632 24.748764 38.049816 7.812704z m229.363798-105.159205l-18.635809-33.65709-15.758521 35.018937-38.264845 7.167619 28.885504 25.506483-4.986615 37.885984 33.698047-19.188739 35.141811 16.383129-8.099409-37.343294 26.622583-27.789881-38.602746-3.983148z m349.6262 563.303152l-30.790042-23.305-0.133113 38.193168-32.15189 21.502856 37.03611 12.03136 10.915259 36.667489 22.956859-30.871958 38.90993 1.023946-22.813506-31.035789 13.167939-35.838093-37.03611 11.611542zM820.415874 821.706045l-14.67314-35.428515-19.700711 33.012004-38.684662 2.764653 25.844385 28.56808-9.21551 37.118025 35.592346-15.359183 33.104159 20.253643-3.901232-38.090774 29.489631-24.718045zM590.191962 925.267896l18.431019 33.790202 16.075945-34.916542 38.264844-6.737562-28.670474-25.793188 5.273319-37.885984-33.882357 18.840598-34.96774-16.659594 7.792225 37.39449-27.032162 27.64653zM245.316869 359.282006l30.615971 23.673621 0.450536-38.234126 32.295242-21.359504-36.862039-12.287346-10.638794-36.862039-23.202605 30.646689-38.90993-1.382326 22.526801 31.179141-13.413686 35.950728 37.107786-11.376035zM108.579184 524.331786a474.086779 474.086779 0 0 1 224.735564-414.585305 491.432416 491.432416 0 0 1 477.158615-22.700872l35.53091-22.127463a522.632036 522.632036 0 0 0-139.67641-52.374813A528.038468 528.038468 0 0 0 506.95543 6.891153a521.014202 521.014202 0 0 0-192.972774 72.618217A514.491669 514.491669 0 0 0 164.742596 220.148288a505.64478 505.64478 0 0 0-80.246611 179.651243 500.18715 500.18715 0 0 0-11.550106 146.628999l35.633305-22.096744z m967.270141-24.748764a473.410975 473.410975 0 0 1-224.612691 414.523868 491.114993 491.114993 0 0 1-477.086939 22.74183l-35.592346 22.158181a527.06572 527.06572 0 0 0 532.031856-14.591224A515.41322 515.41322 0 0 0 1019.859983 803.797238a507.938418 507.938418 0 0 0 80.072541-179.641003 499.562543 499.562543 0 0 0 11.509147-146.700676l-35.592346 22.096745zM440.829028 276.639363a284.656856 284.656856 0 0 1 133.64537-42.514218l54.975635-34.22026a322.010389 322.010389 0 0 0-208.137407 46.702156 312.989429 312.989429 0 0 0-131.751071 165.049779l54.944917-34.22026a278.513183 278.513183 0 0 1 96.332795-100.797197z m302.954763 470.564406a283.776263 283.776263 0 0 1-133.614652 42.585894l-54.944917 34.22026a322.030868 322.030868 0 0 0 208.147647-46.681677 312.620809 312.620809 0 0 0 131.720352-165.049779l-54.924438 34.281696a279.178748 279.178748 0 0 1-96.363513 100.684564z m-405.124048-75.219039" fill="#F1CC6D" p-id="21294" data-darkreader-inline-fill="" style="--darkreader-inline-fill: var(--darkreader-background-f1cc6d, #816317);"></path><path d="M332.32152 647.881053l-4.331289-0.112634a280.499637 280.499637 0 0 0-25.957019-102.650539l31.076747-2.44723q-6.614688 9.799159-1.392566 36.247672l52.917504-33.073441-20.356037-32.561468q-7.628394-12.195191-18.185272-26.827372l34.087146-4.33129-5.734095 13.485363 25.445047 40.701834 48.842201-30.523816 5.344996-23.151408 33.07344 7.628394-83.472039 52.170024q16.413847 30.800281 27.339346 55.08827l72.249596-45.155998 6.102715-26.458752 36.350067 8.345156-99.711816 62.327564a204.113301 204.113301 0 0 0 93.209761 35.930248 140.126945 140.126945 0 0 0 68.481477-8.160845l2.549625 4.075303q-17.427553 15.133915-14.540027 28.895742a228.339852 228.339852 0 0 1-73.263302-10.802625 221.100557 221.100557 0 0 1-81.526543-46.763592l-7.116421 4.454163a167.251262 167.251262 0 0 1 6.993548 96.097288 227.489978 227.489978 0 0 1-49.333696 87.496145l-3.94219-1.791905a236.531417 236.531417 0 0 0 38.664183-80.768823 178.238198 178.238198 0 0 0-7.638634-91.438335l-63.075044 39.411663a109.193551 109.193551 0 0 0-22.506323 18.318385l-14.898407-3.450696 97.684403-61.047632a545.86536 545.86536 0 0 0-27.339346-55.08827l-54.955156 34.353373a261.976463 261.976463 0 0 1-1.12634 61.580084z m327.375864-360.264994l31.076747-2.457469a36.380785 36.380785 0 0 0-4.075303 19.53688q0.890833 9.338383 9.164312 45.217435l66.136642-41.336681 4.536078-19.792867 28.742151 7.50552-33.564934 20.970405a374.282808 374.282808 0 0 1 35.633304 124.941833q51.606855 21.451659 92.943536 8.324677l2.539384 4.075303a29.417955 29.417955 0 0 0-14.365955 24.543974 184.115645 184.115645 0 0 1-81.280796-21.369743 212.888514 212.888514 0 0 1-45.790844 107.862422l-3.532612-3.419978a227.459259 227.459259 0 0 0 35.244205-111.108329 335.608386 335.608386 0 0 1-83.861139-82.018037 232.435634 232.435634 0 0 1-2.672498 68.174293l-4.331289-0.122873a285.680802 285.680802 0 0 0-8.775213-75.167841 499.490867 499.490867 0 0 0-23.755536-74.358924z m37.906463 69.699972q50.234768 57.750528 84.321915 76.058673a396.932483 396.932483 0 0 0-34.425049-107.248054zM678.261516 493.920603a174.070739 174.070739 0 0 1 50.245007 1.198017 27.554374 27.554374 0 0 1 16.034987 9.799158 20.827052 20.827052 0 0 1 2.795372 12.389741q-0.37886 7.321211-2.416512 8.601143t-8.529466-4.577037a117.948285 117.948285 0 0 0-25.55768-13.741349 166.5345 166.5345 0 0 0-32.694581-9.276946z m-42.739486-143.086147l50.245007 80.379723q8.26324 13.229376 21.359504 31.936861l-5.969603 22.117224-81.403669-130.245871-55.968862 34.988218 82.038515 131.269817-9.532933 18.687006q-18.697245-32.182608-50.818416-83.564195t-45.217435-70.089071l19.710952-2.426751 54.955156-34.343133 2.805611-15.901874 24.165114 4.71015z m-40.200101 42.10464l28.117544-4.833023-3.686204 12.20543q45.155998 72.239357 55.897186 114.343997t-11.509147 97.059797l-4.577037-2.805611a174.654388 174.654388 0 0 0 2.979682-84.639337 287.134804 287.134804 0 0 0-31.926622-74.850418q-22.833985-38.807535-35.295402-56.480835z" fill="#F1CC6D" p-id="21295" data-darkreader-inline-fill="" style="--darkreader-inline-fill: var(--darkreader-background-f1cc6d, #816317);"></path></svg>