<?xml version="1.0" standalone="no"?><!DOCTYPE svg PUBLIC "-//W3C//DTD SVG 1.1//EN" "http://www.w3.org/Graphics/SVG/1.1/DTD/svg11.dtd"><svg t="1767022566114" class="icon" viewBox="0 0 1024 1024" version="1.1" xmlns="http://www.w3.org/2000/svg" p-id="5819" data-darkreader-inline-fill="" xmlns:xlink="http://www.w3.org/1999/xlink" width="200" height="200"><path d="M512 0C794.766884 0 1024 229.233116 1024 512S794.766884 1024 512 1024 0 794.766884 0 512 229.233116 0 512 0z m0 23.813953C242.378419 23.813953 23.813953 242.378419 23.813953 512S242.378419 1000.186047 512 1000.186047 1000.186047 781.621581 1000.186047 512 781.621581 23.813953 512 23.813953z" fill="#39BA85" p-id="5820" data-darkreader-inline-fill="" style="--darkreader-inline-fill: var(--darkreader-background-39ba85, #3e956c);"></path><path d="M834.941023 617.210047l-22.623256-7.358512c7.096558-21.908837 11.859349-44.532093 14.169303-67.417302l23.694883 2.381395a347.207442 347.207442 0 0 1-15.24093 72.394419z m-110.496744 160.934697l-15.002791-18.503442a320.845395 320.845395 0 0 0 48.532838-48.890046l18.622511 14.883721a344.659349 344.659349 0 0 1-52.152558 52.509767z m-181.390884 75.490233l-2.476651-23.694884c22.861395-2.381395 45.437023-7.263256 67.322047-14.526512l7.501395 22.599442c-23.528186 7.810977-47.770791 13.026233-72.346791 15.621954z m-193.369302-35.768558l10.811535-21.218233c20.527628 10.430512 42.150698 18.646326 64.416744 24.480744l-6.048744 23.051907a345.730977 345.730977 0 0 1-69.155721-26.314418zM194.131349 404.313302l22.385116 8.120558c-7.858605 21.670698-13.335814 44.079628-16.431628 66.91721l-23.575814-3.19107c3.286326-24.504558 9.192186-48.580465 17.622326-71.846698z m407.361488-217.802418c24.004465 5.953488 47.294512 14.45507 69.51293 25.338046l-10.501953 21.38493a323.060093 323.060093 0 0 0-64.726326-23.575813l5.715349-23.147163z m-291.48279 60.225488l14.383627 18.955907a319.773767 319.773767 0 0 0-50.05693 47.318326l-18.122418-15.455256c16.026791-18.813023 34.053953-35.84 53.771907-50.818977z m96.422697-51.390512c23.575814-8.144372 47.723163-13.645395 72.108651-16.526883l2.810047 23.647256c-22.694698 2.690977-45.198884 7.810977-67.155349 15.383814l-7.763349-22.504187zM572.320744 628.331163l-17.717581-30.672372-51.962047 30.005581-25.147535-43.579535 39.840745-22.980465-17.431814-30.196093-39.840745 23.004279-20.861023-36.125767 43.055628-24.861768-17.574698-30.458046-43.055627 24.861767-23.575814-40.817116-31.19628 18.003349 23.575814 40.817116-14.09786 8.144372-17.146047-29.696-30.434232 17.574698 28.005209 48.509023a21.099163 21.099163 0 0 1 3.048186 8.144372c0.23814 2.28614-0.571535 3.953116-2.381395 5.00093l-4.21507 2.429024 17.574698 30.434232 5.953488-3.429209c10.549581-6.096372 17.479442-12.954791 20.765768-20.575256 3.31014-7.620465 2.024186-16.907907-3.834047-27.790884l14.336-8.287255 20.861023 36.125767-45.770418 26.433488 17.431814 30.196093 45.770418-26.433488 25.147535 43.555721-54.438697 31.434419 17.717581 30.672372 137.597023-79.443349z m-220.636279 135.644279c6.429767-3.714977 11.621209-7.691907 15.550512-11.930791a26.195349 26.195349 0 0 0 6.906046-15.217116c0.642977-5.882047-0.285767-12.811907-2.810046-20.813395-2.524279-8.001488-7.025116-17.622326-13.502512-28.814884l-10.00186-17.336558 17.574697-10.144745 16.574512 28.695814c3.429209 5.953488 4.643721 11.121116 3.667349 15.526698a33.815814 33.815814 0 0 1-6.310698 13.050047l28.529116 14.550325c7.930047-9.858977 12.026047-19.146419 12.288-27.862325 0.23814-8.739721-2.786233-18.527256-9.049302-29.434047l-82.610605-143.026605a75.085395 75.085395 0 0 0-8.049116-11.668837 19.170233 19.170233 0 0 0-8.763535-6.02493 19.979907 19.979907 0 0 0-11.002046 0.095256 60.487442 60.487442 0 0 0-14.597954 6.429767l-18.574883 10.716279-3.405396-5.953488-28.457674 16.431628 93.731721 162.363535c3.048186 5.286698 5.429581 9.692279 7.144186 13.216744 1.666977 3.524465 2.738605 6.38214 3.119628 8.573023 0.381023 2.190884 0.190512 3.953116-0.571535 5.286698a10.287628 10.287628 0 0 1-3.881675 3.572093l-4.953302 2.857674 17.003163 29.434047 4.453209-2.571907z m-34.292093-187.415814l-17.574698 10.144744-15.00279-25.981023 17.574697-10.144744 15.002791 25.957209z m31.434419 54.438698l-17.574698 10.144744-15.288558-26.481117 17.574698-10.144744 15.288558 26.481117z m326.846511-59.677768l-72.870697-126.213953 44.055814-25.457117-17.431814-30.172279-44.055814 25.433303-10.430512-18.098605 0.762047-0.404837c16.14586-9.33507 25.71907-19.313116 28.719627-29.957954 3.000558-10.644837 0.452465-22.956651-7.644279-36.983069l-40.84093 23.575813c2.190884 3.810233 2.881488 7.191814 2.071814 10.168559-0.78586 3.000558-4.000744 6.120186-9.620837 9.358883l-61.606698 35.578047 17.146047 29.696 39.840744-23.004279 10.430512 18.07479-43.817675 25.290419 17.431814 30.172279 43.817675-25.290418 72.870697 126.213953 31.196279-17.979535z m99.375628-53.105116c9.001674-12.216558 14.431256-23.67107 16.312558-34.315907 1.881302-10.644837-0.23814-21.26586-6.334511-31.815442l-99.589954-172.508279-31.672558 18.289116 96.446512 167.054884c2.857674 4.953302 3.453023 10.382884 1.80986 16.288744-1.666977 5.90586-5.262884 12.764279-10.859163 20.622884l33.887256 16.407814z m-40.245581-43.412837l-85.444465-147.979907-31.672558 18.289116 85.444465 147.979907 31.672558-18.289116z m-13.312 62.154418l-17.28893-29.957953-4.691349 2.71479c-1.166884 0.666791-2.548093 0.523907-4.191256-0.404837-1.619349-0.928744-4.21507-3.881674-7.763349-8.882604-3.548279-5.00093-8.477767-12.692837-14.836093-23.099535a2241.440744 2241.440744 0 0 1-25.242791-42.865117l-29.672186 17.146047a1640.876651 1640.876651 0 0 0 32.863256 54.938791c8.763535 13.859721 16.550698 24.099721 23.337675 30.72 6.810791 6.667907 13.288186 10.073302 19.456 10.24 6.144 0.190512 13.19293-2.000372 21.099162-6.572652l6.929861-4.000744z m-122.99907 70.989396a52.866977 52.866977 0 0 0 12.502326-9.525582 23.147163 23.147163 0 0 0 5.834418-11.597395c0.833488-4.453209 0.476279-9.692279-1.14307-15.693395a139.764093 139.764093 0 0 0-8.287255-21.765954 492.42493 492.42493 0 0 0-15.288558-29.957953c-6.286884-11.430698-13.812093-24.766512-22.575628-39.936l-29.696 17.146046c10.47814 18.170047 18.646326 32.577488 24.504558 43.293767 5.834419 10.716279 10.049488 18.813023 12.597581 24.385489 2.548093 5.572465 3.810233 9.287442 3.810233 11.192558-0.023814 1.857488-0.619163 3.143442-1.762233 3.810233l-4.715163 2.71479 17.288931 29.93414 6.92986-4.000744z" fill="#39BA85" p-id="5821" data-darkreader-inline-fill="" style="--darkreader-inline-fill: var(--darkreader-background-39ba85, #3e956c);"></path></svg>